<mxfile host="app.diagrams.net" modified="2022-07-13T04:36:01.443Z" agent="5.0 (Windows)" etag="6TeVw8wMiKKA2UQePc1R" version="20.0.4" type="github">
  <diagram id="4Lsy9dx3n1dA3Q9o16Mn" name="Page-1">
    <mxGraphModel dx="1346" dy="914" grid="1" gridSize="10" guides="1" tooltips="1" connect="1" arrows="1" fold="1" page="1" pageScale="1" pageWidth="850" pageHeight="1100" math="0" shadow="0">
      <root>
        <mxCell id="0" />
        <mxCell id="1" parent="0" />
        <mxCell id="P1cF8exlI6dg9SIkbuYz-3" style="edgeStyle=orthogonalEdgeStyle;rounded=0;orthogonalLoop=1;jettySize=auto;html=1;" parent="1" source="P1cF8exlI6dg9SIkbuYz-1" target="8awhTqWynsI0euUl-bvd-1" edge="1">
          <mxGeometry relative="1" as="geometry">
            <mxPoint x="410" y="430" as="targetPoint" />
          </mxGeometry>
        </mxCell>
        <mxCell id="P1cF8exlI6dg9SIkbuYz-1" value="Start" style="ellipse;whiteSpace=wrap;html=1;" parent="1" vertex="1">
          <mxGeometry x="350" y="290" width="120" height="80" as="geometry" />
        </mxCell>
        <mxCell id="P1cF8exlI6dg9SIkbuYz-7" style="edgeStyle=orthogonalEdgeStyle;rounded=0;orthogonalLoop=1;jettySize=auto;html=1;entryX=0.5;entryY=0;entryDx=0;entryDy=0;exitX=0.5;exitY=1;exitDx=0;exitDy=0;" parent="1" source="8awhTqWynsI0euUl-bvd-1" target="P1cF8exlI6dg9SIkbuYz-6" edge="1">
          <mxGeometry relative="1" as="geometry">
            <mxPoint x="410" y="480" as="sourcePoint" />
          </mxGeometry>
        </mxCell>
        <mxCell id="P1cF8exlI6dg9SIkbuYz-9" style="edgeStyle=orthogonalEdgeStyle;rounded=0;orthogonalLoop=1;jettySize=auto;html=1;" parent="1" source="P1cF8exlI6dg9SIkbuYz-6" edge="1">
          <mxGeometry relative="1" as="geometry">
            <mxPoint x="410" y="630" as="targetPoint" />
          </mxGeometry>
        </mxCell>
        <mxCell id="P1cF8exlI6dg9SIkbuYz-6" value="&lt;div&gt;parse using anitomy&lt;/div&gt;&lt;div&gt;or similar module&lt;br&gt;&lt;/div&gt;" style="rounded=1;whiteSpace=wrap;html=1;" parent="1" vertex="1">
          <mxGeometry x="350" y="530" width="120" height="60" as="geometry" />
        </mxCell>
        <mxCell id="P1cF8exlI6dg9SIkbuYz-13" style="edgeStyle=orthogonalEdgeStyle;rounded=0;orthogonalLoop=1;jettySize=auto;html=1;startArrow=none;" parent="1" source="P1cF8exlI6dg9SIkbuYz-16" target="P1cF8exlI6dg9SIkbuYz-12" edge="1">
          <mxGeometry relative="1" as="geometry" />
        </mxCell>
        <mxCell id="P1cF8exlI6dg9SIkbuYz-43" style="edgeStyle=orthogonalEdgeStyle;rounded=0;orthogonalLoop=1;jettySize=auto;html=1;entryX=0;entryY=0.5;entryDx=0;entryDy=0;startArrow=none;" parent="1" source="P1cF8exlI6dg9SIkbuYz-44" target="P1cF8exlI6dg9SIkbuYz-56" edge="1">
          <mxGeometry relative="1" as="geometry" />
        </mxCell>
        <mxCell id="P1cF8exlI6dg9SIkbuYz-10" value="&lt;div&gt;Anime in &lt;br&gt;&lt;/div&gt;&lt;div&gt;database?&lt;/div&gt;" style="rhombus;whiteSpace=wrap;html=1;" parent="1" vertex="1">
          <mxGeometry x="350" y="630" width="120" height="120" as="geometry" />
        </mxCell>
        <mxCell id="P1cF8exlI6dg9SIkbuYz-29" style="edgeStyle=orthogonalEdgeStyle;rounded=0;orthogonalLoop=1;jettySize=auto;html=1;entryX=0;entryY=0.5;entryDx=0;entryDy=0;startArrow=none;" parent="1" source="P1cF8exlI6dg9SIkbuYz-30" edge="1">
          <mxGeometry relative="1" as="geometry">
            <mxPoint x="590" y="890" as="targetPoint" />
          </mxGeometry>
        </mxCell>
        <mxCell id="P1cF8exlI6dg9SIkbuYz-12" value="Have season?" style="rhombus;whiteSpace=wrap;html=1;" parent="1" vertex="1">
          <mxGeometry x="352.5" y="830" width="115" height="120" as="geometry" />
        </mxCell>
        <mxCell id="P1cF8exlI6dg9SIkbuYz-21" style="edgeStyle=orthogonalEdgeStyle;rounded=0;orthogonalLoop=1;jettySize=auto;html=1;startArrow=none;" parent="1" source="P1cF8exlI6dg9SIkbuYz-22" target="P1cF8exlI6dg9SIkbuYz-55" edge="1">
          <mxGeometry relative="1" as="geometry">
            <mxPoint x="410" y="1880" as="targetPoint" />
          </mxGeometry>
        </mxCell>
        <mxCell id="P1cF8exlI6dg9SIkbuYz-33" style="edgeStyle=orthogonalEdgeStyle;rounded=0;orthogonalLoop=1;jettySize=auto;html=1;entryX=1;entryY=0.5;entryDx=0;entryDy=0;startArrow=none;" parent="1" source="P1cF8exlI6dg9SIkbuYz-34" target="P1cF8exlI6dg9SIkbuYz-54" edge="1">
          <mxGeometry relative="1" as="geometry">
            <mxPoint x="239.99999999999977" y="1720" as="targetPoint" />
          </mxGeometry>
        </mxCell>
        <mxCell id="P1cF8exlI6dg9SIkbuYz-14" value="&lt;div&gt;Have fansub&lt;/div&gt;" style="rhombus;whiteSpace=wrap;html=1;" parent="1" vertex="1">
          <mxGeometry x="350" y="1660" width="120" height="120" as="geometry" />
        </mxCell>
        <mxCell id="P1cF8exlI6dg9SIkbuYz-16" value="Yes" style="text;html=1;strokeColor=none;fillColor=none;align=center;verticalAlign=middle;whiteSpace=wrap;rounded=0;" parent="1" vertex="1">
          <mxGeometry x="380" y="775" width="60" height="30" as="geometry" />
        </mxCell>
        <mxCell id="P1cF8exlI6dg9SIkbuYz-17" value="" style="edgeStyle=orthogonalEdgeStyle;rounded=0;orthogonalLoop=1;jettySize=auto;html=1;endArrow=none;" parent="1" source="P1cF8exlI6dg9SIkbuYz-10" target="P1cF8exlI6dg9SIkbuYz-16" edge="1">
          <mxGeometry relative="1" as="geometry">
            <mxPoint x="410" y="750" as="sourcePoint" />
            <mxPoint x="410" y="800" as="targetPoint" />
          </mxGeometry>
        </mxCell>
        <mxCell id="Kc0FxBT8hTXuSTGvmsNu-2" style="edgeStyle=orthogonalEdgeStyle;rounded=0;orthogonalLoop=1;jettySize=auto;html=1;" edge="1" parent="1" source="P1cF8exlI6dg9SIkbuYz-18" target="Kc0FxBT8hTXuSTGvmsNu-1">
          <mxGeometry relative="1" as="geometry" />
        </mxCell>
        <mxCell id="P1cF8exlI6dg9SIkbuYz-18" value="No" style="text;html=1;strokeColor=none;fillColor=none;align=center;verticalAlign=middle;whiteSpace=wrap;rounded=0;" parent="1" vertex="1">
          <mxGeometry x="380" y="975" width="60" height="30" as="geometry" />
        </mxCell>
        <mxCell id="P1cF8exlI6dg9SIkbuYz-19" value="" style="edgeStyle=orthogonalEdgeStyle;rounded=0;orthogonalLoop=1;jettySize=auto;html=1;endArrow=none;" parent="1" source="P1cF8exlI6dg9SIkbuYz-12" target="P1cF8exlI6dg9SIkbuYz-18" edge="1">
          <mxGeometry relative="1" as="geometry">
            <mxPoint x="410" y="950" as="sourcePoint" />
            <mxPoint x="410" y="1040" as="targetPoint" />
          </mxGeometry>
        </mxCell>
        <mxCell id="P1cF8exlI6dg9SIkbuYz-22" value="Yes" style="text;html=1;strokeColor=none;fillColor=none;align=center;verticalAlign=middle;whiteSpace=wrap;rounded=0;" parent="1" vertex="1">
          <mxGeometry x="380" y="1810" width="60" height="30" as="geometry" />
        </mxCell>
        <mxCell id="P1cF8exlI6dg9SIkbuYz-23" value="" style="edgeStyle=orthogonalEdgeStyle;rounded=0;orthogonalLoop=1;jettySize=auto;html=1;endArrow=none;" parent="1" source="P1cF8exlI6dg9SIkbuYz-14" target="P1cF8exlI6dg9SIkbuYz-22" edge="1">
          <mxGeometry relative="1" as="geometry">
            <mxPoint x="410" y="1780" as="sourcePoint" />
            <mxPoint x="410" y="1840" as="targetPoint" />
          </mxGeometry>
        </mxCell>
        <mxCell id="P1cF8exlI6dg9SIkbuYz-30" value="Yes" style="text;html=1;strokeColor=none;fillColor=none;align=center;verticalAlign=middle;whiteSpace=wrap;rounded=0;" parent="1" vertex="1">
          <mxGeometry x="490" y="875" width="60" height="30" as="geometry" />
        </mxCell>
        <mxCell id="P1cF8exlI6dg9SIkbuYz-31" value="" style="edgeStyle=orthogonalEdgeStyle;rounded=0;orthogonalLoop=1;jettySize=auto;html=1;entryX=0;entryY=0.5;entryDx=0;entryDy=0;endArrow=none;" parent="1" source="P1cF8exlI6dg9SIkbuYz-12" target="P1cF8exlI6dg9SIkbuYz-30" edge="1">
          <mxGeometry relative="1" as="geometry">
            <mxPoint x="467.5" y="890" as="sourcePoint" />
            <mxPoint x="600" y="890" as="targetPoint" />
          </mxGeometry>
        </mxCell>
        <mxCell id="P1cF8exlI6dg9SIkbuYz-34" value="No" style="text;html=1;strokeColor=none;fillColor=none;align=center;verticalAlign=middle;whiteSpace=wrap;rounded=0;" parent="1" vertex="1">
          <mxGeometry x="270" y="1705" width="60" height="30" as="geometry" />
        </mxCell>
        <mxCell id="P1cF8exlI6dg9SIkbuYz-35" value="" style="edgeStyle=orthogonalEdgeStyle;rounded=0;orthogonalLoop=1;jettySize=auto;html=1;entryX=1;entryY=0.5;entryDx=0;entryDy=0;endArrow=none;" parent="1" source="P1cF8exlI6dg9SIkbuYz-14" target="P1cF8exlI6dg9SIkbuYz-34" edge="1">
          <mxGeometry relative="1" as="geometry">
            <mxPoint x="350" y="1720" as="sourcePoint" />
            <mxPoint x="240" y="1720" as="targetPoint" />
          </mxGeometry>
        </mxCell>
        <mxCell id="P1cF8exlI6dg9SIkbuYz-38" style="edgeStyle=orthogonalEdgeStyle;rounded=0;orthogonalLoop=1;jettySize=auto;html=1;entryX=0.5;entryY=0;entryDx=0;entryDy=0;startArrow=none;" parent="1" source="P1cF8exlI6dg9SIkbuYz-40" target="P1cF8exlI6dg9SIkbuYz-37" edge="1">
          <mxGeometry relative="1" as="geometry" />
        </mxCell>
        <mxCell id="P1cF8exlI6dg9SIkbuYz-49" style="edgeStyle=orthogonalEdgeStyle;rounded=0;orthogonalLoop=1;jettySize=auto;html=1;entryX=0;entryY=0.5;entryDx=0;entryDy=0;startArrow=none;exitX=0.5;exitY=0;exitDx=0;exitDy=0;" parent="1" source="P1cF8exlI6dg9SIkbuYz-50" target="P1cF8exlI6dg9SIkbuYz-56" edge="1">
          <mxGeometry relative="1" as="geometry" />
        </mxCell>
        <mxCell id="P1cF8exlI6dg9SIkbuYz-36" value="Have season node" style="rhombus;whiteSpace=wrap;html=1;" parent="1" vertex="1">
          <mxGeometry x="590" y="825" width="140" height="130" as="geometry" />
        </mxCell>
        <mxCell id="Kc0FxBT8hTXuSTGvmsNu-3" style="edgeStyle=orthogonalEdgeStyle;rounded=0;orthogonalLoop=1;jettySize=auto;html=1;entryX=1;entryY=0.5;entryDx=0;entryDy=0;" edge="1" parent="1" source="P1cF8exlI6dg9SIkbuYz-37" target="Kc0FxBT8hTXuSTGvmsNu-1">
          <mxGeometry relative="1" as="geometry" />
        </mxCell>
        <mxCell id="P1cF8exlI6dg9SIkbuYz-37" value="Go to season node" style="rounded=1;whiteSpace=wrap;html=1;" parent="1" vertex="1">
          <mxGeometry x="600" y="1070" width="120" height="60" as="geometry" />
        </mxCell>
        <mxCell id="P1cF8exlI6dg9SIkbuYz-40" value="Yes" style="text;html=1;strokeColor=none;fillColor=none;align=center;verticalAlign=middle;whiteSpace=wrap;rounded=0;" parent="1" vertex="1">
          <mxGeometry x="630" y="985" width="60" height="30" as="geometry" />
        </mxCell>
        <mxCell id="P1cF8exlI6dg9SIkbuYz-41" value="" style="edgeStyle=orthogonalEdgeStyle;rounded=0;orthogonalLoop=1;jettySize=auto;html=1;entryX=0.5;entryY=0;entryDx=0;entryDy=0;endArrow=none;" parent="1" source="P1cF8exlI6dg9SIkbuYz-36" target="P1cF8exlI6dg9SIkbuYz-40" edge="1">
          <mxGeometry relative="1" as="geometry">
            <mxPoint x="660" y="955" as="sourcePoint" />
            <mxPoint x="660" y="1070" as="targetPoint" />
          </mxGeometry>
        </mxCell>
        <mxCell id="P1cF8exlI6dg9SIkbuYz-48" style="edgeStyle=orthogonalEdgeStyle;rounded=0;orthogonalLoop=1;jettySize=auto;html=1;entryX=0.5;entryY=0;entryDx=0;entryDy=0;" parent="1" source="P1cF8exlI6dg9SIkbuYz-42" target="qL67JpA-SOpL5Jrr_QXl-1" edge="1">
          <mxGeometry relative="1" as="geometry">
            <mxPoint x="1540" y="570" as="targetPoint" />
          </mxGeometry>
        </mxCell>
        <mxCell id="P1cF8exlI6dg9SIkbuYz-42" value="Ask user the anime title" style="rounded=1;whiteSpace=wrap;html=1;" parent="1" vertex="1">
          <mxGeometry x="1480" y="400" width="120" height="60" as="geometry" />
        </mxCell>
        <mxCell id="P1cF8exlI6dg9SIkbuYz-44" value="No" style="text;html=1;strokeColor=none;fillColor=none;align=center;verticalAlign=middle;whiteSpace=wrap;rounded=0;" parent="1" vertex="1">
          <mxGeometry x="560" y="675" width="60" height="30" as="geometry" />
        </mxCell>
        <mxCell id="P1cF8exlI6dg9SIkbuYz-45" value="" style="edgeStyle=orthogonalEdgeStyle;rounded=0;orthogonalLoop=1;jettySize=auto;html=1;entryX=0;entryY=0.5;entryDx=0;entryDy=0;endArrow=none;" parent="1" source="P1cF8exlI6dg9SIkbuYz-10" target="P1cF8exlI6dg9SIkbuYz-44" edge="1">
          <mxGeometry relative="1" as="geometry">
            <mxPoint x="470" y="690" as="sourcePoint" />
            <mxPoint x="830" y="690" as="targetPoint" />
          </mxGeometry>
        </mxCell>
        <mxCell id="P1cF8exlI6dg9SIkbuYz-50" value="No" style="text;html=1;strokeColor=none;fillColor=none;align=center;verticalAlign=middle;whiteSpace=wrap;rounded=0;" parent="1" vertex="1">
          <mxGeometry x="790" y="765" width="60" height="30" as="geometry" />
        </mxCell>
        <mxCell id="P1cF8exlI6dg9SIkbuYz-51" value="" style="edgeStyle=orthogonalEdgeStyle;rounded=0;orthogonalLoop=1;jettySize=auto;html=1;entryX=0.5;entryY=1;entryDx=0;entryDy=0;endArrow=none;" parent="1" source="P1cF8exlI6dg9SIkbuYz-36" target="P1cF8exlI6dg9SIkbuYz-50" edge="1">
          <mxGeometry relative="1" as="geometry">
            <mxPoint x="730" y="890" as="sourcePoint" />
            <mxPoint x="910" y="690" as="targetPoint" />
          </mxGeometry>
        </mxCell>
        <mxCell id="8awhTqWynsI0euUl-bvd-5" style="edgeStyle=orthogonalEdgeStyle;rounded=0;orthogonalLoop=1;jettySize=auto;html=1;" parent="1" source="P1cF8exlI6dg9SIkbuYz-54" target="8awhTqWynsI0euUl-bvd-3" edge="1">
          <mxGeometry relative="1" as="geometry">
            <Array as="points">
              <mxPoint x="170" y="2080" />
              <mxPoint x="410" y="2080" />
            </Array>
          </mxGeometry>
        </mxCell>
        <mxCell id="P1cF8exlI6dg9SIkbuYz-54" value="Return anilist id" style="ellipse;whiteSpace=wrap;html=1;aspect=fixed;" parent="1" vertex="1">
          <mxGeometry x="130" y="1680" width="80" height="80" as="geometry" />
        </mxCell>
        <mxCell id="8awhTqWynsI0euUl-bvd-4" style="edgeStyle=orthogonalEdgeStyle;rounded=0;orthogonalLoop=1;jettySize=auto;html=1;" parent="1" source="P1cF8exlI6dg9SIkbuYz-55" target="8awhTqWynsI0euUl-bvd-3" edge="1">
          <mxGeometry relative="1" as="geometry" />
        </mxCell>
        <mxCell id="P1cF8exlI6dg9SIkbuYz-55" value="Return fansub anilist id" style="ellipse;whiteSpace=wrap;html=1;aspect=fixed;" parent="1" vertex="1">
          <mxGeometry x="370" y="1880" width="80" height="80" as="geometry" />
        </mxCell>
        <mxCell id="8awhTqWynsI0euUl-bvd-6" style="edgeStyle=orthogonalEdgeStyle;rounded=0;orthogonalLoop=1;jettySize=auto;html=1;entryX=0.5;entryY=0;entryDx=0;entryDy=0;" parent="1" source="P1cF8exlI6dg9SIkbuYz-56" target="8awhTqWynsI0euUl-bvd-3" edge="1">
          <mxGeometry relative="1" as="geometry">
            <Array as="points">
              <mxPoint x="970" y="2080" />
              <mxPoint x="410" y="2080" />
            </Array>
          </mxGeometry>
        </mxCell>
        <mxCell id="P1cF8exlI6dg9SIkbuYz-56" value="&lt;div&gt;Return not &lt;br&gt;&lt;/div&gt;&lt;div&gt;detected&lt;br&gt;&lt;/div&gt;" style="ellipse;whiteSpace=wrap;html=1;aspect=fixed;" parent="1" vertex="1">
          <mxGeometry x="930" y="650" width="80" height="80" as="geometry" />
        </mxCell>
        <mxCell id="P1cF8exlI6dg9SIkbuYz-59" style="edgeStyle=elbowEdgeStyle;rounded=0;orthogonalLoop=1;jettySize=auto;html=1;" parent="1" source="P1cF8exlI6dg9SIkbuYz-58" target="P1cF8exlI6dg9SIkbuYz-42" edge="1">
          <mxGeometry relative="1" as="geometry" />
        </mxCell>
        <mxCell id="P1cF8exlI6dg9SIkbuYz-58" value="&lt;div&gt;On not &lt;br&gt;&lt;/div&gt;&lt;div&gt;detected&lt;br&gt;&lt;/div&gt;" style="ellipse;whiteSpace=wrap;html=1;aspect=fixed;" parent="1" vertex="1">
          <mxGeometry x="1500" y="250" width="80" height="80" as="geometry" />
        </mxCell>
        <mxCell id="qL67JpA-SOpL5Jrr_QXl-3" style="edgeStyle=orthogonalEdgeStyle;rounded=0;orthogonalLoop=1;jettySize=auto;html=1;" parent="1" source="qL67JpA-SOpL5Jrr_QXl-1" target="qL67JpA-SOpL5Jrr_QXl-2" edge="1">
          <mxGeometry relative="1" as="geometry" />
        </mxCell>
        <mxCell id="qL67JpA-SOpL5Jrr_QXl-1" value="&lt;div&gt;Entering/create anime title node.&lt;/div&gt;" style="rounded=1;whiteSpace=wrap;html=1;" parent="1" vertex="1">
          <mxGeometry x="1480" y="550" width="120" height="60" as="geometry" />
        </mxCell>
        <mxCell id="qL67JpA-SOpL5Jrr_QXl-5" style="edgeStyle=orthogonalEdgeStyle;rounded=0;orthogonalLoop=1;jettySize=auto;html=1;entryX=0;entryY=0.5;entryDx=0;entryDy=0;startArrow=none;" parent="1" source="qL67JpA-SOpL5Jrr_QXl-12" target="qL67JpA-SOpL5Jrr_QXl-31" edge="1">
          <mxGeometry relative="1" as="geometry">
            <mxPoint x="1724.9999999999995" y="730" as="targetPoint" />
          </mxGeometry>
        </mxCell>
        <mxCell id="qL67JpA-SOpL5Jrr_QXl-2" value="Have season" style="rhombus;whiteSpace=wrap;html=1;" parent="1" vertex="1">
          <mxGeometry x="1485" y="672.5" width="110" height="115" as="geometry" />
        </mxCell>
        <mxCell id="qL67JpA-SOpL5Jrr_QXl-15" style="edgeStyle=orthogonalEdgeStyle;rounded=0;orthogonalLoop=1;jettySize=auto;html=1;startArrow=none;" parent="1" source="qL67JpA-SOpL5Jrr_QXl-16" target="qL67JpA-SOpL5Jrr_QXl-14" edge="1">
          <mxGeometry relative="1" as="geometry" />
        </mxCell>
        <mxCell id="qL67JpA-SOpL5Jrr_QXl-19" style="edgeStyle=orthogonalEdgeStyle;rounded=0;orthogonalLoop=1;jettySize=auto;html=1;entryX=0;entryY=0.5;entryDx=0;entryDy=0;" parent="1" source="qL67JpA-SOpL5Jrr_QXl-7" target="qL67JpA-SOpL5Jrr_QXl-18" edge="1">
          <mxGeometry relative="1" as="geometry" />
        </mxCell>
        <mxCell id="qL67JpA-SOpL5Jrr_QXl-7" value="Have fansub" style="rhombus;whiteSpace=wrap;html=1;" parent="1" vertex="1">
          <mxGeometry x="1485" y="1390" width="110" height="110" as="geometry" />
        </mxCell>
        <mxCell id="Kc0FxBT8hTXuSTGvmsNu-71" style="edgeStyle=orthogonalEdgeStyle;rounded=0;orthogonalLoop=1;jettySize=auto;html=1;" edge="1" parent="1" source="qL67JpA-SOpL5Jrr_QXl-10" target="Kc0FxBT8hTXuSTGvmsNu-45">
          <mxGeometry relative="1" as="geometry" />
        </mxCell>
        <mxCell id="qL67JpA-SOpL5Jrr_QXl-10" value="No" style="text;html=1;strokeColor=none;fillColor=none;align=center;verticalAlign=middle;whiteSpace=wrap;rounded=0;" parent="1" vertex="1">
          <mxGeometry x="1510" y="815" width="60" height="30" as="geometry" />
        </mxCell>
        <mxCell id="qL67JpA-SOpL5Jrr_QXl-11" value="" style="edgeStyle=orthogonalEdgeStyle;rounded=0;orthogonalLoop=1;jettySize=auto;html=1;endArrow=none;" parent="1" source="qL67JpA-SOpL5Jrr_QXl-2" target="qL67JpA-SOpL5Jrr_QXl-10" edge="1">
          <mxGeometry relative="1" as="geometry">
            <mxPoint x="1540" y="787.5" as="sourcePoint" />
            <mxPoint x="1540" y="900" as="targetPoint" />
          </mxGeometry>
        </mxCell>
        <mxCell id="qL67JpA-SOpL5Jrr_QXl-12" value="Yes" style="text;html=1;strokeColor=none;fillColor=none;align=center;verticalAlign=middle;whiteSpace=wrap;rounded=0;" parent="1" vertex="1">
          <mxGeometry x="1620" y="715" width="60" height="30" as="geometry" />
        </mxCell>
        <mxCell id="qL67JpA-SOpL5Jrr_QXl-13" value="" style="edgeStyle=orthogonalEdgeStyle;rounded=0;orthogonalLoop=1;jettySize=auto;html=1;entryX=0;entryY=0.5;entryDx=0;entryDy=0;endArrow=none;" parent="1" source="qL67JpA-SOpL5Jrr_QXl-2" target="qL67JpA-SOpL5Jrr_QXl-12" edge="1">
          <mxGeometry relative="1" as="geometry">
            <mxPoint x="1595" y="730" as="sourcePoint" />
            <mxPoint x="1710" y="730" as="targetPoint" />
          </mxGeometry>
        </mxCell>
        <mxCell id="8awhTqWynsI0euUl-bvd-10" style="edgeStyle=orthogonalEdgeStyle;rounded=0;orthogonalLoop=1;jettySize=auto;html=1;" parent="1" source="qL67JpA-SOpL5Jrr_QXl-14" target="8awhTqWynsI0euUl-bvd-9" edge="1">
          <mxGeometry relative="1" as="geometry" />
        </mxCell>
        <mxCell id="qL67JpA-SOpL5Jrr_QXl-14" value="Set the anilist id" style="rounded=1;whiteSpace=wrap;html=1;" parent="1" vertex="1">
          <mxGeometry x="1480" y="1665" width="120" height="60" as="geometry" />
        </mxCell>
        <mxCell id="qL67JpA-SOpL5Jrr_QXl-16" value="No" style="text;html=1;strokeColor=none;fillColor=none;align=center;verticalAlign=middle;whiteSpace=wrap;rounded=0;" parent="1" vertex="1">
          <mxGeometry x="1510" y="1530" width="60" height="30" as="geometry" />
        </mxCell>
        <mxCell id="qL67JpA-SOpL5Jrr_QXl-17" value="" style="edgeStyle=orthogonalEdgeStyle;rounded=0;orthogonalLoop=1;jettySize=auto;html=1;endArrow=none;" parent="1" source="qL67JpA-SOpL5Jrr_QXl-7" target="qL67JpA-SOpL5Jrr_QXl-16" edge="1">
          <mxGeometry relative="1" as="geometry">
            <mxPoint x="1530" y="1500" as="sourcePoint" />
            <mxPoint x="1530" y="1575" as="targetPoint" />
          </mxGeometry>
        </mxCell>
        <mxCell id="qL67JpA-SOpL5Jrr_QXl-20" style="edgeStyle=orthogonalEdgeStyle;rounded=0;orthogonalLoop=1;jettySize=auto;html=1;entryX=0.5;entryY=0;entryDx=0;entryDy=0;startArrow=none;" parent="1" source="qL67JpA-SOpL5Jrr_QXl-21" target="qL67JpA-SOpL5Jrr_QXl-14" edge="1">
          <mxGeometry relative="1" as="geometry">
            <Array as="points">
              <mxPoint x="1540" y="1595" />
            </Array>
          </mxGeometry>
        </mxCell>
        <mxCell id="qL67JpA-SOpL5Jrr_QXl-24" style="edgeStyle=orthogonalEdgeStyle;rounded=0;orthogonalLoop=1;jettySize=auto;html=1;startArrow=none;entryX=1;entryY=0.5;entryDx=0;entryDy=0;exitX=0.5;exitY=1;exitDx=0;exitDy=0;" parent="1" source="qL67JpA-SOpL5Jrr_QXl-25" target="qL67JpA-SOpL5Jrr_QXl-23" edge="1">
          <mxGeometry relative="1" as="geometry" />
        </mxCell>
        <mxCell id="qL67JpA-SOpL5Jrr_QXl-18" value="&lt;div&gt;Add rule for&lt;/div&gt;&lt;div&gt;fansub only&lt;/div&gt;" style="rhombus;whiteSpace=wrap;html=1;" parent="1" vertex="1">
          <mxGeometry x="1730" y="1390" width="110" height="110" as="geometry" />
        </mxCell>
        <mxCell id="qL67JpA-SOpL5Jrr_QXl-21" value="No" style="text;html=1;strokeColor=none;fillColor=none;align=center;verticalAlign=middle;whiteSpace=wrap;rounded=0;" parent="1" vertex="1">
          <mxGeometry x="1625" y="1580" width="60" height="30" as="geometry" />
        </mxCell>
        <mxCell id="qL67JpA-SOpL5Jrr_QXl-22" value="" style="edgeStyle=orthogonalEdgeStyle;rounded=0;orthogonalLoop=1;jettySize=auto;html=1;entryX=1;entryY=0.5;entryDx=0;entryDy=0;endArrow=none;" parent="1" source="qL67JpA-SOpL5Jrr_QXl-18" target="qL67JpA-SOpL5Jrr_QXl-21" edge="1">
          <mxGeometry relative="1" as="geometry">
            <mxPoint x="1785" y="1500" as="sourcePoint" />
            <mxPoint x="1530" y="1575" as="targetPoint" />
            <Array as="points">
              <mxPoint x="1785" y="1595" />
            </Array>
          </mxGeometry>
        </mxCell>
        <mxCell id="8awhTqWynsI0euUl-bvd-11" style="edgeStyle=orthogonalEdgeStyle;rounded=0;orthogonalLoop=1;jettySize=auto;html=1;entryX=0.5;entryY=0;entryDx=0;entryDy=0;" parent="1" source="qL67JpA-SOpL5Jrr_QXl-23" target="8awhTqWynsI0euUl-bvd-9" edge="1">
          <mxGeometry relative="1" as="geometry">
            <Array as="points">
              <mxPoint x="1730" y="1805" />
              <mxPoint x="1540" y="1805" />
            </Array>
          </mxGeometry>
        </mxCell>
        <mxCell id="qL67JpA-SOpL5Jrr_QXl-23" value="Set fansub anilist id" style="rounded=1;whiteSpace=wrap;html=1;" parent="1" vertex="1">
          <mxGeometry x="1670" y="1665" width="120" height="60" as="geometry" />
        </mxCell>
        <mxCell id="qL67JpA-SOpL5Jrr_QXl-25" value="Yes" style="text;html=1;strokeColor=none;fillColor=none;align=center;verticalAlign=middle;whiteSpace=wrap;rounded=0;" parent="1" vertex="1">
          <mxGeometry x="1840" y="1560" width="60" height="30" as="geometry" />
        </mxCell>
        <mxCell id="qL67JpA-SOpL5Jrr_QXl-26" value="" style="edgeStyle=orthogonalEdgeStyle;rounded=0;orthogonalLoop=1;jettySize=auto;html=1;endArrow=none;exitX=1;exitY=0.5;exitDx=0;exitDy=0;entryX=0.5;entryY=0;entryDx=0;entryDy=0;" parent="1" source="qL67JpA-SOpL5Jrr_QXl-18" target="qL67JpA-SOpL5Jrr_QXl-25" edge="1">
          <mxGeometry relative="1" as="geometry">
            <mxPoint x="1785" y="1500" as="sourcePoint" />
            <mxPoint x="1785" y="1655" as="targetPoint" />
            <Array as="points">
              <mxPoint x="1870" y="1445" />
              <mxPoint x="1870" y="1565" />
            </Array>
          </mxGeometry>
        </mxCell>
        <mxCell id="Kc0FxBT8hTXuSTGvmsNu-70" style="edgeStyle=orthogonalEdgeStyle;rounded=0;orthogonalLoop=1;jettySize=auto;html=1;" edge="1" parent="1" source="qL67JpA-SOpL5Jrr_QXl-31" target="Kc0FxBT8hTXuSTGvmsNu-45">
          <mxGeometry relative="1" as="geometry">
            <Array as="points">
              <mxPoint x="1795" y="870" />
              <mxPoint x="1540" y="870" />
            </Array>
          </mxGeometry>
        </mxCell>
        <mxCell id="qL67JpA-SOpL5Jrr_QXl-31" value="Enter/create season node" style="rounded=1;whiteSpace=wrap;html=1;" parent="1" vertex="1">
          <mxGeometry x="1740" y="702.5" width="110" height="55" as="geometry" />
        </mxCell>
        <mxCell id="8awhTqWynsI0euUl-bvd-1" value="&lt;div&gt;Ask user for &lt;br&gt;&lt;/div&gt;&lt;div&gt;anime filename&lt;/div&gt;" style="shape=parallelogram;perimeter=parallelogramPerimeter;whiteSpace=wrap;html=1;fixedSize=1;" parent="1" vertex="1">
          <mxGeometry x="350" y="410" width="120" height="60" as="geometry" />
        </mxCell>
        <mxCell id="8awhTqWynsI0euUl-bvd-3" value="End" style="ellipse;whiteSpace=wrap;html=1;" parent="1" vertex="1">
          <mxGeometry x="350" y="2140" width="120" height="80" as="geometry" />
        </mxCell>
        <mxCell id="8awhTqWynsI0euUl-bvd-8" value="&lt;font style=&quot;font-size: 27px;&quot;&gt;Add data in database&lt;br&gt;&lt;/font&gt;" style="text;html=1;strokeColor=none;fillColor=none;align=center;verticalAlign=middle;whiteSpace=wrap;rounded=0;" parent="1" vertex="1">
          <mxGeometry x="1390" y="150" width="300" height="90" as="geometry" />
        </mxCell>
        <mxCell id="8awhTqWynsI0euUl-bvd-9" value="End" style="ellipse;whiteSpace=wrap;html=1;aspect=fixed;" parent="1" vertex="1">
          <mxGeometry x="1500" y="1925" width="80" height="80" as="geometry" />
        </mxCell>
        <mxCell id="8awhTqWynsI0euUl-bvd-13" value="&lt;font style=&quot;font-size: 29px;&quot;&gt;Check data in database&lt;br&gt;&lt;/font&gt;" style="text;html=1;strokeColor=none;fillColor=none;align=center;verticalAlign=middle;whiteSpace=wrap;rounded=0;" parent="1" vertex="1">
          <mxGeometry x="260" y="160" width="300" height="90" as="geometry" />
        </mxCell>
        <mxCell id="Kc0FxBT8hTXuSTGvmsNu-8" style="edgeStyle=orthogonalEdgeStyle;rounded=0;orthogonalLoop=1;jettySize=auto;html=1;startArrow=none;" edge="1" parent="1" source="Kc0FxBT8hTXuSTGvmsNu-12" target="Kc0FxBT8hTXuSTGvmsNu-7">
          <mxGeometry relative="1" as="geometry" />
        </mxCell>
        <mxCell id="Kc0FxBT8hTXuSTGvmsNu-11" style="edgeStyle=orthogonalEdgeStyle;rounded=0;orthogonalLoop=1;jettySize=auto;html=1;startArrow=none;" edge="1" parent="1" source="Kc0FxBT8hTXuSTGvmsNu-14" target="Kc0FxBT8hTXuSTGvmsNu-4">
          <mxGeometry relative="1" as="geometry">
            <Array as="points" />
          </mxGeometry>
        </mxCell>
        <mxCell id="Kc0FxBT8hTXuSTGvmsNu-1" value="&lt;div&gt;Have &lt;br&gt;&lt;/div&gt;&lt;div&gt;anime type?&lt;br&gt;&lt;/div&gt;" style="rhombus;whiteSpace=wrap;html=1;" vertex="1" parent="1">
          <mxGeometry x="355" y="1045" width="110" height="110" as="geometry" />
        </mxCell>
        <mxCell id="Kc0FxBT8hTXuSTGvmsNu-10" style="edgeStyle=orthogonalEdgeStyle;rounded=0;orthogonalLoop=1;jettySize=auto;html=1;startArrow=none;" edge="1" parent="1" source="Kc0FxBT8hTXuSTGvmsNu-19" target="Kc0FxBT8hTXuSTGvmsNu-5">
          <mxGeometry relative="1" as="geometry" />
        </mxCell>
        <mxCell id="Kc0FxBT8hTXuSTGvmsNu-16" style="edgeStyle=orthogonalEdgeStyle;rounded=0;orthogonalLoop=1;jettySize=auto;html=1;entryX=1;entryY=0.5;entryDx=0;entryDy=0;startArrow=none;" edge="1" parent="1" source="Kc0FxBT8hTXuSTGvmsNu-17" target="Kc0FxBT8hTXuSTGvmsNu-7">
          <mxGeometry relative="1" as="geometry">
            <Array as="points">
              <mxPoint x="530" y="1310" />
              <mxPoint x="530" y="1405" />
            </Array>
          </mxGeometry>
        </mxCell>
        <mxCell id="Kc0FxBT8hTXuSTGvmsNu-4" value="&lt;div&gt;Have anime&lt;/div&gt;&lt;div&gt;type node&lt;br&gt;&lt;/div&gt;" style="rhombus;whiteSpace=wrap;html=1;" vertex="1" parent="1">
          <mxGeometry x="605" y="1170" width="110" height="110" as="geometry" />
        </mxCell>
        <mxCell id="Kc0FxBT8hTXuSTGvmsNu-9" style="edgeStyle=orthogonalEdgeStyle;rounded=0;orthogonalLoop=1;jettySize=auto;html=1;" edge="1" parent="1" source="Kc0FxBT8hTXuSTGvmsNu-5" target="Kc0FxBT8hTXuSTGvmsNu-7">
          <mxGeometry relative="1" as="geometry" />
        </mxCell>
        <mxCell id="Kc0FxBT8hTXuSTGvmsNu-5" value="Go to anime type node" style="rounded=1;whiteSpace=wrap;html=1;" vertex="1" parent="1">
          <mxGeometry x="600" y="1375" width="120" height="60" as="geometry" />
        </mxCell>
        <mxCell id="Kc0FxBT8hTXuSTGvmsNu-28" style="edgeStyle=orthogonalEdgeStyle;rounded=0;orthogonalLoop=1;jettySize=auto;html=1;startArrow=none;" edge="1" parent="1" source="Kc0FxBT8hTXuSTGvmsNu-33" target="Kc0FxBT8hTXuSTGvmsNu-26">
          <mxGeometry relative="1" as="geometry">
            <Array as="points" />
          </mxGeometry>
        </mxCell>
        <mxCell id="Kc0FxBT8hTXuSTGvmsNu-31" style="edgeStyle=orthogonalEdgeStyle;rounded=0;orthogonalLoop=1;jettySize=auto;html=1;startArrow=none;" edge="1" parent="1" source="Kc0FxBT8hTXuSTGvmsNu-35" target="P1cF8exlI6dg9SIkbuYz-14">
          <mxGeometry relative="1" as="geometry" />
        </mxCell>
        <mxCell id="Kc0FxBT8hTXuSTGvmsNu-7" value="&lt;div&gt;Have&lt;/div&gt;&lt;div&gt;anime year&lt;br&gt;&lt;/div&gt;" style="rhombus;whiteSpace=wrap;html=1;" vertex="1" parent="1">
          <mxGeometry x="355" y="1350" width="110" height="110" as="geometry" />
        </mxCell>
        <mxCell id="Kc0FxBT8hTXuSTGvmsNu-12" value="No" style="text;html=1;strokeColor=none;fillColor=none;align=center;verticalAlign=middle;whiteSpace=wrap;rounded=0;" vertex="1" parent="1">
          <mxGeometry x="380" y="1265" width="60" height="30" as="geometry" />
        </mxCell>
        <mxCell id="Kc0FxBT8hTXuSTGvmsNu-13" value="" style="edgeStyle=orthogonalEdgeStyle;rounded=0;orthogonalLoop=1;jettySize=auto;html=1;endArrow=none;" edge="1" parent="1" source="Kc0FxBT8hTXuSTGvmsNu-1" target="Kc0FxBT8hTXuSTGvmsNu-12">
          <mxGeometry relative="1" as="geometry">
            <mxPoint x="410" y="1155" as="sourcePoint" />
            <mxPoint x="410" y="1350" as="targetPoint" />
          </mxGeometry>
        </mxCell>
        <mxCell id="Kc0FxBT8hTXuSTGvmsNu-14" value="Yes" style="text;html=1;strokeColor=none;fillColor=none;align=center;verticalAlign=middle;whiteSpace=wrap;rounded=0;" vertex="1" parent="1">
          <mxGeometry x="480" y="1210" width="60" height="30" as="geometry" />
        </mxCell>
        <mxCell id="Kc0FxBT8hTXuSTGvmsNu-15" value="" style="edgeStyle=orthogonalEdgeStyle;rounded=0;orthogonalLoop=1;jettySize=auto;html=1;endArrow=none;" edge="1" parent="1" source="Kc0FxBT8hTXuSTGvmsNu-1" target="Kc0FxBT8hTXuSTGvmsNu-14">
          <mxGeometry relative="1" as="geometry">
            <mxPoint x="410" y="1155" as="sourcePoint" />
            <mxPoint x="605.0400000000002" y="1225.0400000000002" as="targetPoint" />
            <Array as="points">
              <mxPoint x="410" y="1225" />
            </Array>
          </mxGeometry>
        </mxCell>
        <mxCell id="Kc0FxBT8hTXuSTGvmsNu-17" value="No" style="text;html=1;strokeColor=none;fillColor=none;align=center;verticalAlign=middle;whiteSpace=wrap;rounded=0;" vertex="1" parent="1">
          <mxGeometry x="540" y="1295" width="60" height="30" as="geometry" />
        </mxCell>
        <mxCell id="Kc0FxBT8hTXuSTGvmsNu-18" value="" style="edgeStyle=orthogonalEdgeStyle;rounded=0;orthogonalLoop=1;jettySize=auto;html=1;entryX=1;entryY=0.5;entryDx=0;entryDy=0;endArrow=none;" edge="1" parent="1" source="Kc0FxBT8hTXuSTGvmsNu-4" target="Kc0FxBT8hTXuSTGvmsNu-17">
          <mxGeometry relative="1" as="geometry">
            <mxPoint x="660" y="1280" as="sourcePoint" />
            <mxPoint x="465" y="1405" as="targetPoint" />
            <Array as="points">
              <mxPoint x="660" y="1310" />
            </Array>
          </mxGeometry>
        </mxCell>
        <mxCell id="Kc0FxBT8hTXuSTGvmsNu-19" value="Yes" style="text;html=1;strokeColor=none;fillColor=none;align=center;verticalAlign=middle;whiteSpace=wrap;rounded=0;" vertex="1" parent="1">
          <mxGeometry x="630" y="1325" width="60" height="30" as="geometry" />
        </mxCell>
        <mxCell id="Kc0FxBT8hTXuSTGvmsNu-20" value="" style="edgeStyle=orthogonalEdgeStyle;rounded=0;orthogonalLoop=1;jettySize=auto;html=1;endArrow=none;" edge="1" parent="1" source="Kc0FxBT8hTXuSTGvmsNu-4" target="Kc0FxBT8hTXuSTGvmsNu-19">
          <mxGeometry relative="1" as="geometry">
            <mxPoint x="660" y="1280" as="sourcePoint" />
            <mxPoint x="660" y="1375" as="targetPoint" />
          </mxGeometry>
        </mxCell>
        <mxCell id="Kc0FxBT8hTXuSTGvmsNu-32" style="edgeStyle=orthogonalEdgeStyle;rounded=0;orthogonalLoop=1;jettySize=auto;html=1;entryX=1;entryY=0.5;entryDx=0;entryDy=0;startArrow=none;" edge="1" parent="1" source="Kc0FxBT8hTXuSTGvmsNu-37" target="P1cF8exlI6dg9SIkbuYz-14">
          <mxGeometry relative="1" as="geometry">
            <Array as="points">
              <mxPoint x="510" y="1610" />
              <mxPoint x="510" y="1720" />
            </Array>
          </mxGeometry>
        </mxCell>
        <mxCell id="Kc0FxBT8hTXuSTGvmsNu-26" value="&lt;div&gt;Have anime &lt;br&gt;&lt;/div&gt;&lt;div&gt;year node&lt;/div&gt;" style="rhombus;whiteSpace=wrap;html=1;" vertex="1" parent="1">
          <mxGeometry x="605" y="1480" width="110" height="110" as="geometry" />
        </mxCell>
        <mxCell id="Kc0FxBT8hTXuSTGvmsNu-30" style="edgeStyle=orthogonalEdgeStyle;rounded=0;orthogonalLoop=1;jettySize=auto;html=1;" edge="1" parent="1" source="Kc0FxBT8hTXuSTGvmsNu-27" target="P1cF8exlI6dg9SIkbuYz-14">
          <mxGeometry relative="1" as="geometry" />
        </mxCell>
        <mxCell id="Kc0FxBT8hTXuSTGvmsNu-27" value="Go to anime year node" style="rounded=1;whiteSpace=wrap;html=1;" vertex="1" parent="1">
          <mxGeometry x="600" y="1690" width="120" height="60" as="geometry" />
        </mxCell>
        <mxCell id="Kc0FxBT8hTXuSTGvmsNu-33" value="Yes" style="text;html=1;strokeColor=none;fillColor=none;align=center;verticalAlign=middle;whiteSpace=wrap;rounded=0;" vertex="1" parent="1">
          <mxGeometry x="450" y="1520" width="60" height="30" as="geometry" />
        </mxCell>
        <mxCell id="Kc0FxBT8hTXuSTGvmsNu-34" value="" style="edgeStyle=orthogonalEdgeStyle;rounded=0;orthogonalLoop=1;jettySize=auto;html=1;endArrow=none;" edge="1" parent="1" source="Kc0FxBT8hTXuSTGvmsNu-7" target="Kc0FxBT8hTXuSTGvmsNu-33">
          <mxGeometry relative="1" as="geometry">
            <mxPoint x="410" y="1460" as="sourcePoint" />
            <mxPoint x="605" y="1535" as="targetPoint" />
            <Array as="points">
              <mxPoint x="410" y="1535" />
            </Array>
          </mxGeometry>
        </mxCell>
        <mxCell id="Kc0FxBT8hTXuSTGvmsNu-35" value="No" style="text;html=1;strokeColor=none;fillColor=none;align=center;verticalAlign=middle;whiteSpace=wrap;rounded=0;" vertex="1" parent="1">
          <mxGeometry x="380" y="1550" width="60" height="30" as="geometry" />
        </mxCell>
        <mxCell id="Kc0FxBT8hTXuSTGvmsNu-36" value="" style="edgeStyle=orthogonalEdgeStyle;rounded=0;orthogonalLoop=1;jettySize=auto;html=1;endArrow=none;" edge="1" parent="1" source="Kc0FxBT8hTXuSTGvmsNu-7" target="Kc0FxBT8hTXuSTGvmsNu-35">
          <mxGeometry relative="1" as="geometry">
            <mxPoint x="410" y="1460" as="sourcePoint" />
            <mxPoint x="410" y="1620" as="targetPoint" />
          </mxGeometry>
        </mxCell>
        <mxCell id="Kc0FxBT8hTXuSTGvmsNu-37" value="No" style="text;html=1;strokeColor=none;fillColor=none;align=center;verticalAlign=middle;whiteSpace=wrap;rounded=0;" vertex="1" parent="1">
          <mxGeometry x="540" y="1595" width="60" height="30" as="geometry" />
        </mxCell>
        <mxCell id="Kc0FxBT8hTXuSTGvmsNu-38" value="" style="edgeStyle=orthogonalEdgeStyle;rounded=0;orthogonalLoop=1;jettySize=auto;html=1;entryX=1;entryY=0.5;entryDx=0;entryDy=0;endArrow=none;" edge="1" parent="1" source="Kc0FxBT8hTXuSTGvmsNu-26" target="Kc0FxBT8hTXuSTGvmsNu-37">
          <mxGeometry relative="1" as="geometry">
            <mxPoint x="660" y="1590" as="sourcePoint" />
            <mxPoint x="470" y="1680" as="targetPoint" />
            <Array as="points">
              <mxPoint x="660" y="1610" />
            </Array>
          </mxGeometry>
        </mxCell>
        <mxCell id="Kc0FxBT8hTXuSTGvmsNu-42" style="edgeStyle=orthogonalEdgeStyle;rounded=0;orthogonalLoop=1;jettySize=auto;html=1;" edge="1" parent="1" source="Kc0FxBT8hTXuSTGvmsNu-39" target="Kc0FxBT8hTXuSTGvmsNu-27">
          <mxGeometry relative="1" as="geometry" />
        </mxCell>
        <mxCell id="Kc0FxBT8hTXuSTGvmsNu-39" value="Yes" style="text;html=1;strokeColor=none;fillColor=none;align=center;verticalAlign=middle;whiteSpace=wrap;rounded=0;" vertex="1" parent="1">
          <mxGeometry x="630" y="1630" width="60" height="30" as="geometry" />
        </mxCell>
        <mxCell id="Kc0FxBT8hTXuSTGvmsNu-40" value="" style="edgeStyle=orthogonalEdgeStyle;rounded=0;orthogonalLoop=1;jettySize=auto;html=1;endArrow=none;" edge="1" parent="1" source="Kc0FxBT8hTXuSTGvmsNu-26" target="Kc0FxBT8hTXuSTGvmsNu-39">
          <mxGeometry relative="1" as="geometry">
            <mxPoint x="660" y="1590" as="sourcePoint" />
            <mxPoint x="660" y="1650" as="targetPoint" />
          </mxGeometry>
        </mxCell>
        <mxCell id="Kc0FxBT8hTXuSTGvmsNu-44" style="edgeStyle=orthogonalEdgeStyle;rounded=0;orthogonalLoop=1;jettySize=auto;html=1;entryX=0;entryY=0.5;entryDx=0;entryDy=0;startArrow=none;" edge="1" parent="1" source="Kc0FxBT8hTXuSTGvmsNu-50" target="Kc0FxBT8hTXuSTGvmsNu-54">
          <mxGeometry relative="1" as="geometry">
            <mxPoint x="1724.9999999999995" y="962.5" as="targetPoint" />
          </mxGeometry>
        </mxCell>
        <mxCell id="Kc0FxBT8hTXuSTGvmsNu-45" value="Have anime type" style="rhombus;whiteSpace=wrap;html=1;" vertex="1" parent="1">
          <mxGeometry x="1485" y="905" width="110" height="115" as="geometry" />
        </mxCell>
        <mxCell id="Kc0FxBT8hTXuSTGvmsNu-72" style="edgeStyle=orthogonalEdgeStyle;rounded=0;orthogonalLoop=1;jettySize=auto;html=1;" edge="1" parent="1" source="Kc0FxBT8hTXuSTGvmsNu-48" target="Kc0FxBT8hTXuSTGvmsNu-58">
          <mxGeometry relative="1" as="geometry" />
        </mxCell>
        <mxCell id="Kc0FxBT8hTXuSTGvmsNu-48" value="No" style="text;html=1;strokeColor=none;fillColor=none;align=center;verticalAlign=middle;whiteSpace=wrap;rounded=0;" vertex="1" parent="1">
          <mxGeometry x="1510" y="1047.5" width="60" height="30" as="geometry" />
        </mxCell>
        <mxCell id="Kc0FxBT8hTXuSTGvmsNu-49" value="" style="edgeStyle=orthogonalEdgeStyle;rounded=0;orthogonalLoop=1;jettySize=auto;html=1;endArrow=none;" edge="1" parent="1" source="Kc0FxBT8hTXuSTGvmsNu-45" target="Kc0FxBT8hTXuSTGvmsNu-48">
          <mxGeometry relative="1" as="geometry">
            <mxPoint x="1540" y="1020" as="sourcePoint" />
            <mxPoint x="1540" y="1132.5" as="targetPoint" />
          </mxGeometry>
        </mxCell>
        <mxCell id="Kc0FxBT8hTXuSTGvmsNu-50" value="Yes" style="text;html=1;strokeColor=none;fillColor=none;align=center;verticalAlign=middle;whiteSpace=wrap;rounded=0;" vertex="1" parent="1">
          <mxGeometry x="1620" y="947.5" width="60" height="30" as="geometry" />
        </mxCell>
        <mxCell id="Kc0FxBT8hTXuSTGvmsNu-51" value="" style="edgeStyle=orthogonalEdgeStyle;rounded=0;orthogonalLoop=1;jettySize=auto;html=1;entryX=0;entryY=0.5;entryDx=0;entryDy=0;endArrow=none;" edge="1" parent="1" source="Kc0FxBT8hTXuSTGvmsNu-45" target="Kc0FxBT8hTXuSTGvmsNu-50">
          <mxGeometry relative="1" as="geometry">
            <mxPoint x="1595" y="962.5" as="sourcePoint" />
            <mxPoint x="1710" y="962.5" as="targetPoint" />
          </mxGeometry>
        </mxCell>
        <mxCell id="Kc0FxBT8hTXuSTGvmsNu-73" style="edgeStyle=orthogonalEdgeStyle;rounded=0;orthogonalLoop=1;jettySize=auto;html=1;" edge="1" parent="1" source="Kc0FxBT8hTXuSTGvmsNu-54" target="Kc0FxBT8hTXuSTGvmsNu-58">
          <mxGeometry relative="1" as="geometry">
            <Array as="points">
              <mxPoint x="1795" y="1090" />
              <mxPoint x="1540" y="1090" />
            </Array>
          </mxGeometry>
        </mxCell>
        <mxCell id="Kc0FxBT8hTXuSTGvmsNu-54" value="&lt;div&gt;Enter/create &lt;br&gt;&lt;/div&gt;&lt;div&gt;anime type node&lt;/div&gt;" style="rounded=1;whiteSpace=wrap;html=1;" vertex="1" parent="1">
          <mxGeometry x="1740" y="935" width="110" height="55" as="geometry" />
        </mxCell>
        <mxCell id="Kc0FxBT8hTXuSTGvmsNu-57" style="edgeStyle=orthogonalEdgeStyle;rounded=0;orthogonalLoop=1;jettySize=auto;html=1;entryX=0;entryY=0.5;entryDx=0;entryDy=0;startArrow=none;" edge="1" parent="1" source="Kc0FxBT8hTXuSTGvmsNu-63" target="Kc0FxBT8hTXuSTGvmsNu-67">
          <mxGeometry relative="1" as="geometry">
            <mxPoint x="1724.9999999999995" y="1180" as="targetPoint" />
          </mxGeometry>
        </mxCell>
        <mxCell id="Kc0FxBT8hTXuSTGvmsNu-58" value="Have year" style="rhombus;whiteSpace=wrap;html=1;" vertex="1" parent="1">
          <mxGeometry x="1485" y="1122.5" width="110" height="115" as="geometry" />
        </mxCell>
        <mxCell id="Kc0FxBT8hTXuSTGvmsNu-74" style="edgeStyle=orthogonalEdgeStyle;rounded=0;orthogonalLoop=1;jettySize=auto;html=1;" edge="1" parent="1" source="Kc0FxBT8hTXuSTGvmsNu-61" target="qL67JpA-SOpL5Jrr_QXl-7">
          <mxGeometry relative="1" as="geometry" />
        </mxCell>
        <mxCell id="Kc0FxBT8hTXuSTGvmsNu-61" value="No" style="text;html=1;strokeColor=none;fillColor=none;align=center;verticalAlign=middle;whiteSpace=wrap;rounded=0;" vertex="1" parent="1">
          <mxGeometry x="1510" y="1265" width="60" height="30" as="geometry" />
        </mxCell>
        <mxCell id="Kc0FxBT8hTXuSTGvmsNu-62" value="" style="edgeStyle=orthogonalEdgeStyle;rounded=0;orthogonalLoop=1;jettySize=auto;html=1;endArrow=none;" edge="1" parent="1" source="Kc0FxBT8hTXuSTGvmsNu-58" target="Kc0FxBT8hTXuSTGvmsNu-61">
          <mxGeometry relative="1" as="geometry">
            <mxPoint x="1540" y="1237.5" as="sourcePoint" />
            <mxPoint x="1540" y="1350" as="targetPoint" />
          </mxGeometry>
        </mxCell>
        <mxCell id="Kc0FxBT8hTXuSTGvmsNu-63" value="Yes" style="text;html=1;strokeColor=none;fillColor=none;align=center;verticalAlign=middle;whiteSpace=wrap;rounded=0;" vertex="1" parent="1">
          <mxGeometry x="1620" y="1165" width="60" height="30" as="geometry" />
        </mxCell>
        <mxCell id="Kc0FxBT8hTXuSTGvmsNu-64" value="" style="edgeStyle=orthogonalEdgeStyle;rounded=0;orthogonalLoop=1;jettySize=auto;html=1;entryX=0;entryY=0.5;entryDx=0;entryDy=0;endArrow=none;" edge="1" parent="1" source="Kc0FxBT8hTXuSTGvmsNu-58" target="Kc0FxBT8hTXuSTGvmsNu-63">
          <mxGeometry relative="1" as="geometry">
            <mxPoint x="1595" y="1180" as="sourcePoint" />
            <mxPoint x="1710" y="1180" as="targetPoint" />
          </mxGeometry>
        </mxCell>
        <mxCell id="Kc0FxBT8hTXuSTGvmsNu-75" style="edgeStyle=orthogonalEdgeStyle;rounded=0;orthogonalLoop=1;jettySize=auto;html=1;entryX=0.5;entryY=0;entryDx=0;entryDy=0;" edge="1" parent="1" source="Kc0FxBT8hTXuSTGvmsNu-67" target="qL67JpA-SOpL5Jrr_QXl-7">
          <mxGeometry relative="1" as="geometry">
            <Array as="points">
              <mxPoint x="1780" y="1330" />
              <mxPoint x="1540" y="1330" />
            </Array>
          </mxGeometry>
        </mxCell>
        <mxCell id="Kc0FxBT8hTXuSTGvmsNu-67" value="Enter/create year node" style="rounded=1;whiteSpace=wrap;html=1;" vertex="1" parent="1">
          <mxGeometry x="1725" y="1152.5" width="110" height="55" as="geometry" />
        </mxCell>
      </root>
    </mxGraphModel>
  </diagram>
</mxfile>
